<svg width="20" height="20" viewBox="0 0 20 20" fill="none" xmlns="http://www.w3.org/2000/svg">
<path d="M9.59667 1.67662C5.17167 1.88495 1.68083 5.54329 1.69417 9.94079C1.69636 11.2352 2.00627 12.5105 2.59833 13.6616L1.71667 17.9125C1.70591 17.9656 1.70873 18.0206 1.72486 18.0724C1.74099 18.1241 1.76991 18.171 1.80895 18.2086C1.848 18.2463 1.8959 18.2734 1.94822 18.2877C2.00055 18.3019 2.05562 18.3027 2.10833 18.29L6.30334 17.3033C7.4144 17.8523 8.63413 18.1462 9.87334 18.1633C14.3958 18.2325 18.1658 14.6675 18.3067 10.18C18.4583 5.36745 14.4592 1.44662 9.59667 1.67662ZM14.6025 14.4825C13.9979 15.0849 13.2804 15.5621 12.491 15.8867C11.7017 16.2113 10.856 16.3769 10.0025 16.3741C8.99835 16.3772 8.00724 16.1467 7.1075 15.7008L6.52334 15.4116L3.95084 16.0166L4.4925 13.4075L4.20417 12.8475C3.73675 11.9414 3.49436 10.9361 3.4975 9.91662C3.4975 8.19162 4.17417 6.56912 5.4025 5.34995C6.62683 4.13804 8.27979 3.45799 10.0025 3.45745C11.7408 3.45745 13.3742 4.12912 14.6025 5.34912C15.2077 5.94549 15.6879 6.65649 16.0152 7.44059C16.3424 8.22469 16.51 9.06615 16.5083 9.91579C16.5083 11.6258 15.8208 13.2733 14.6025 14.4825Z" fill="#064E3B"/>
<path d="M14.035 11.7041L12.4258 11.2458C12.322 11.216 12.2121 11.2146 12.1075 11.2419C12.003 11.2692 11.9077 11.3241 11.8317 11.4008L11.4383 11.7991C11.357 11.8816 11.2531 11.9382 11.1397 11.9619C11.0263 11.9856 10.9084 11.9754 10.8008 11.9325C10.04 11.6266 8.43834 10.2133 8.02917 9.50579C7.97181 9.40586 7.94561 9.29108 7.95393 9.17616C7.96224 9.06124 8.00469 8.95142 8.07584 8.86079L8.41917 8.41912C8.48527 8.3345 8.52709 8.23349 8.54015 8.12691C8.55322 8.02033 8.53704 7.91221 8.49334 7.81412L7.81667 6.29412C7.7784 6.20917 7.72094 6.13424 7.64882 6.07525C7.5767 6.01625 7.49188 5.97478 7.40102 5.95411C7.31016 5.93343 7.21575 5.93411 7.1252 5.95609C7.03465 5.97807 6.95043 6.02076 6.87917 6.08079C6.43 6.45829 5.89667 7.03079 5.8325 7.66662C5.71834 8.78579 6.20167 10.1966 8.03 11.8916C10.1425 13.8491 11.835 14.1083 12.9358 13.8425C13.5608 13.6925 14.0608 13.09 14.375 12.5975C14.4252 12.5192 14.4564 12.4303 14.4661 12.3378C14.4757 12.2454 14.4635 12.1519 14.4304 12.065C14.3973 11.9781 14.3443 11.9002 14.2756 11.8375C14.207 11.7748 14.1245 11.7292 14.035 11.7041Z" fill="#064E3B"/>
</svg>
